<mxfile host="app.diagrams.net" modified="2021-12-23T04:11:53.020Z" agent="5.0 (Macintosh; Intel Mac OS X 11_2_2) AppleWebKit/537.36 (KHTML, like Gecko) Chrome/88.0.4324.192 Safari/537.36" etag="8zWyC-h_3u_I79cc6Jqa" version="16.0.3" type="github">
  <diagram id="SCfUlmhdvzbNshBZ44EL" name="Page-1">
    <mxGraphModel dx="946" dy="536" grid="1" gridSize="10" guides="1" tooltips="1" connect="1" arrows="1" fold="1" page="1" pageScale="1" pageWidth="827" pageHeight="1169" math="0" shadow="0">
      <root>
        <mxCell id="0" />
        <mxCell id="1" parent="0" />
        <mxCell id="9lZpsrTni4rrmn1i40Wy-16" value="MsgStatusDTO" style="swimlane;fontStyle=0;childLayout=stackLayout;horizontal=1;startSize=26;fillColor=none;horizontalStack=0;resizeParent=1;resizeParentMax=0;resizeLast=0;collapsible=1;marginBottom=0;" parent="1" vertex="1">
          <mxGeometry x="120" y="360" width="160" height="208" as="geometry" />
        </mxCell>
        <mxCell id="9lZpsrTni4rrmn1i40Wy-17" value="+ appId: Integer" style="text;strokeColor=none;fillColor=none;align=left;verticalAlign=top;spacingLeft=4;spacingRight=4;overflow=hidden;rotatable=0;points=[[0,0.5],[1,0.5]];portConstraint=eastwest;" parent="9lZpsrTni4rrmn1i40Wy-16" vertex="1">
          <mxGeometry y="26" width="160" height="26" as="geometry" />
        </mxCell>
        <mxCell id="9lZpsrTni4rrmn1i40Wy-18" value="+ appName: String" style="text;strokeColor=none;fillColor=none;align=left;verticalAlign=top;spacingLeft=4;spacingRight=4;overflow=hidden;rotatable=0;points=[[0,0.5],[1,0.5]];portConstraint=eastwest;" parent="9lZpsrTni4rrmn1i40Wy-16" vertex="1">
          <mxGeometry y="52" width="160" height="26" as="geometry" />
        </mxCell>
        <mxCell id="9lZpsrTni4rrmn1i40Wy-19" value="+ corpId: Integer" style="text;strokeColor=none;fillColor=none;align=left;verticalAlign=top;spacingLeft=4;spacingRight=4;overflow=hidden;rotatable=0;points=[[0,0.5],[1,0.5]];portConstraint=eastwest;" parent="9lZpsrTni4rrmn1i40Wy-16" vertex="1">
          <mxGeometry y="78" width="160" height="26" as="geometry" />
        </mxCell>
        <mxCell id="9lZpsrTni4rrmn1i40Wy-20" value="+ uid: Long" style="text;strokeColor=none;fillColor=none;align=left;verticalAlign=top;spacingLeft=4;spacingRight=4;overflow=hidden;rotatable=0;points=[[0,0.5],[1,0.5]];portConstraint=eastwest;" parent="9lZpsrTni4rrmn1i40Wy-16" vertex="1">
          <mxGeometry y="104" width="160" height="26" as="geometry" />
        </mxCell>
        <mxCell id="9lZpsrTni4rrmn1i40Wy-21" value="+ bzIds: List&lt;BzIdsDTO&gt;" style="text;strokeColor=none;fillColor=none;align=left;verticalAlign=top;spacingLeft=4;spacingRight=4;overflow=hidden;rotatable=0;points=[[0,0.5],[1,0.5]];portConstraint=eastwest;" parent="9lZpsrTni4rrmn1i40Wy-16" vertex="1">
          <mxGeometry y="130" width="160" height="26" as="geometry" />
        </mxCell>
        <mxCell id="9lZpsrTni4rrmn1i40Wy-22" value="+ bzMsg: String" style="text;strokeColor=none;fillColor=none;align=left;verticalAlign=top;spacingLeft=4;spacingRight=4;overflow=hidden;rotatable=0;points=[[0,0.5],[1,0.5]];portConstraint=eastwest;" parent="9lZpsrTni4rrmn1i40Wy-16" vertex="1">
          <mxGeometry y="156" width="160" height="26" as="geometry" />
        </mxCell>
        <mxCell id="9lZpsrTni4rrmn1i40Wy-23" value="+ status: MsgStatusType" style="text;strokeColor=none;fillColor=none;align=left;verticalAlign=top;spacingLeft=4;spacingRight=4;overflow=hidden;rotatable=0;points=[[0,0.5],[1,0.5]];portConstraint=eastwest;" parent="9lZpsrTni4rrmn1i40Wy-16" vertex="1">
          <mxGeometry y="182" width="160" height="26" as="geometry" />
        </mxCell>
        <mxCell id="m58RcJqBQY2xI49NW2av-1" value="BzMsgPO" style="swimlane;fontStyle=1;align=center;verticalAlign=top;childLayout=stackLayout;horizontal=1;startSize=26;horizontalStack=0;resizeParent=1;resizeParentMax=0;resizeLast=0;collapsible=1;marginBottom=0;" vertex="1" parent="1">
          <mxGeometry x="329" y="553" width="160" height="130" as="geometry" />
        </mxCell>
        <mxCell id="m58RcJqBQY2xI49NW2av-2" value="+ id: Long" style="text;strokeColor=none;fillColor=none;align=left;verticalAlign=top;spacingLeft=4;spacingRight=4;overflow=hidden;rotatable=0;points=[[0,0.5],[1,0.5]];portConstraint=eastwest;" vertex="1" parent="m58RcJqBQY2xI49NW2av-1">
          <mxGeometry y="26" width="160" height="26" as="geometry" />
        </mxCell>
        <mxCell id="m58RcJqBQY2xI49NW2av-6" value="+ bzMsg: String" style="text;strokeColor=none;fillColor=none;align=left;verticalAlign=top;spacingLeft=4;spacingRight=4;overflow=hidden;rotatable=0;points=[[0,0.5],[1,0.5]];portConstraint=eastwest;" vertex="1" parent="m58RcJqBQY2xI49NW2av-1">
          <mxGeometry y="52" width="160" height="26" as="geometry" />
        </mxCell>
        <mxCell id="m58RcJqBQY2xI49NW2av-3" value="" style="line;strokeWidth=1;fillColor=none;align=left;verticalAlign=middle;spacingTop=-1;spacingLeft=3;spacingRight=3;rotatable=0;labelPosition=right;points=[];portConstraint=eastwest;" vertex="1" parent="m58RcJqBQY2xI49NW2av-1">
          <mxGeometry y="78" width="160" height="8" as="geometry" />
        </mxCell>
        <mxCell id="m58RcJqBQY2xI49NW2av-4" value="+ insertBzMsg(bzMsg)&#xa;to mysql&#xa;" style="text;strokeColor=none;fillColor=none;align=left;verticalAlign=top;spacingLeft=4;spacingRight=4;overflow=hidden;rotatable=0;points=[[0,0.5],[1,0.5]];portConstraint=eastwest;" vertex="1" parent="m58RcJqBQY2xI49NW2av-1">
          <mxGeometry y="86" width="160" height="44" as="geometry" />
        </mxCell>
        <mxCell id="m58RcJqBQY2xI49NW2av-5" style="edgeStyle=orthogonalEdgeStyle;rounded=0;orthogonalLoop=1;jettySize=auto;html=1;exitX=1;exitY=0.5;exitDx=0;exitDy=0;entryX=0;entryY=0.5;entryDx=0;entryDy=0;" edge="1" parent="1" source="9lZpsrTni4rrmn1i40Wy-22" target="m58RcJqBQY2xI49NW2av-6">
          <mxGeometry relative="1" as="geometry" />
        </mxCell>
        <mxCell id="m58RcJqBQY2xI49NW2av-15" style="edgeStyle=orthogonalEdgeStyle;rounded=0;orthogonalLoop=1;jettySize=auto;html=1;exitX=1;exitY=0.5;exitDx=0;exitDy=0;" edge="1" parent="1" source="9lZpsrTni4rrmn1i40Wy-21">
          <mxGeometry relative="1" as="geometry">
            <mxPoint x="560" y="503" as="targetPoint" />
            <Array as="points">
              <mxPoint x="550" y="503" />
            </Array>
          </mxGeometry>
        </mxCell>
        <mxCell id="m58RcJqBQY2xI49NW2av-17" value="&lt;font style=&quot;font-size: 12px&quot; color=&quot;#ff0000&quot;&gt;iterator&amp;nbsp; &amp;nbsp;&lt;span style=&quot;text-align: left&quot;&gt;BzIdsDTO(&lt;/span&gt;&lt;span style=&quot;font-weight: bold ; background-color: rgb(255 , 255 , 255) ; font-family: &amp;#34;jetbrains mono&amp;#34; , monospace&quot;&gt;lv1,&lt;/span&gt;&lt;span style=&quot;font-weight: bold ; background-color: rgb(255 , 255 , 255) ; font-family: &amp;#34;jetbrains mono&amp;#34; , monospace&quot;&gt;lv2,&lt;/span&gt;&lt;span style=&quot;font-weight: bold ; background-color: rgb(255 , 255 , 255) ; font-family: &amp;#34;jetbrains mono&amp;#34; , monospace&quot;&gt;lv3&lt;/span&gt;&lt;span style=&quot;text-align: left&quot;&gt;)&lt;/span&gt;&lt;/font&gt;" style="text;html=1;strokeColor=none;fillColor=none;align=center;verticalAlign=middle;whiteSpace=wrap;rounded=0;" vertex="1" parent="1">
          <mxGeometry x="329" y="490" width="150" height="30" as="geometry" />
        </mxCell>
        <mxCell id="m58RcJqBQY2xI49NW2av-20" value="+ insertBzMsg(bzMsg)&#xa;to mysql&#xa;" style="text;strokeColor=none;fillColor=none;align=left;verticalAlign=top;spacingLeft=4;spacingRight=4;overflow=hidden;rotatable=0;points=[[0,0.5],[1,0.5]];portConstraint=eastwest;" vertex="1" parent="1">
          <mxGeometry x="339" y="649" width="160" height="44" as="geometry" />
        </mxCell>
        <mxCell id="m58RcJqBQY2xI49NW2av-21" value="MsgStatusPO" style="swimlane;fontStyle=1;align=center;verticalAlign=top;childLayout=stackLayout;horizontal=1;startSize=26;horizontalStack=0;resizeParent=1;resizeParentMax=0;resizeLast=0;collapsible=1;marginBottom=0;" vertex="1" parent="1">
          <mxGeometry x="560" y="300" width="210" height="364" as="geometry" />
        </mxCell>
        <mxCell id="m58RcJqBQY2xI49NW2av-22" value="+ notificationId: Long" style="text;strokeColor=none;fillColor=none;align=left;verticalAlign=top;spacingLeft=4;spacingRight=4;overflow=hidden;rotatable=0;points=[[0,0.5],[1,0.5]];portConstraint=eastwest;" vertex="1" parent="m58RcJqBQY2xI49NW2av-21">
          <mxGeometry y="26" width="210" height="26" as="geometry" />
        </mxCell>
        <mxCell id="m58RcJqBQY2xI49NW2av-29" value="+ appId: Integer" style="text;strokeColor=none;fillColor=none;align=left;verticalAlign=top;spacingLeft=4;spacingRight=4;overflow=hidden;rotatable=0;points=[[0,0.5],[1,0.5]];portConstraint=eastwest;" vertex="1" parent="m58RcJqBQY2xI49NW2av-21">
          <mxGeometry y="52" width="210" height="26" as="geometry" />
        </mxCell>
        <mxCell id="m58RcJqBQY2xI49NW2av-30" value="+ appName: String" style="text;strokeColor=none;fillColor=none;align=left;verticalAlign=top;spacingLeft=4;spacingRight=4;overflow=hidden;rotatable=0;points=[[0,0.5],[1,0.5]];portConstraint=eastwest;" vertex="1" parent="m58RcJqBQY2xI49NW2av-21">
          <mxGeometry y="78" width="210" height="26" as="geometry" />
        </mxCell>
        <mxCell id="m58RcJqBQY2xI49NW2av-23" value="+ uid: Long" style="text;strokeColor=none;fillColor=none;align=left;verticalAlign=top;spacingLeft=4;spacingRight=4;overflow=hidden;rotatable=0;points=[[0,0.5],[1,0.5]];portConstraint=eastwest;" vertex="1" parent="m58RcJqBQY2xI49NW2av-21">
          <mxGeometry y="104" width="210" height="26" as="geometry" />
        </mxCell>
        <mxCell id="m58RcJqBQY2xI49NW2av-28" value="+ corpId: Integer" style="text;strokeColor=none;fillColor=none;align=left;verticalAlign=top;spacingLeft=4;spacingRight=4;overflow=hidden;rotatable=0;points=[[0,0.5],[1,0.5]];portConstraint=eastwest;" vertex="1" parent="m58RcJqBQY2xI49NW2av-21">
          <mxGeometry y="130" width="210" height="26" as="geometry" />
        </mxCell>
        <mxCell id="m58RcJqBQY2xI49NW2av-32" value="+ bzMsg: String" style="text;strokeColor=none;fillColor=none;align=left;verticalAlign=top;spacingLeft=4;spacingRight=4;overflow=hidden;rotatable=0;points=[[0,0.5],[1,0.5]];portConstraint=eastwest;" vertex="1" parent="m58RcJqBQY2xI49NW2av-21">
          <mxGeometry y="156" width="210" height="26" as="geometry" />
        </mxCell>
        <mxCell id="m58RcJqBQY2xI49NW2av-33" value="+ bzIdLv1: String" style="text;strokeColor=none;fillColor=none;align=left;verticalAlign=top;spacingLeft=4;spacingRight=4;overflow=hidden;rotatable=0;points=[[0,0.5],[1,0.5]];portConstraint=eastwest;" vertex="1" parent="m58RcJqBQY2xI49NW2av-21">
          <mxGeometry y="182" width="210" height="26" as="geometry" />
        </mxCell>
        <mxCell id="m58RcJqBQY2xI49NW2av-34" value="+ bzIdLv2: String" style="text;strokeColor=none;fillColor=none;align=left;verticalAlign=top;spacingLeft=4;spacingRight=4;overflow=hidden;rotatable=0;points=[[0,0.5],[1,0.5]];portConstraint=eastwest;" vertex="1" parent="m58RcJqBQY2xI49NW2av-21">
          <mxGeometry y="208" width="210" height="26" as="geometry" />
        </mxCell>
        <mxCell id="m58RcJqBQY2xI49NW2av-35" value="+ bzIdLv3: String" style="text;strokeColor=none;fillColor=none;align=left;verticalAlign=top;spacingLeft=4;spacingRight=4;overflow=hidden;rotatable=0;points=[[0,0.5],[1,0.5]];portConstraint=eastwest;" vertex="1" parent="m58RcJqBQY2xI49NW2av-21">
          <mxGeometry y="234" width="210" height="26" as="geometry" />
        </mxCell>
        <mxCell id="m58RcJqBQY2xI49NW2av-31" value="+ bzMsgId: Long" style="text;strokeColor=none;fillColor=none;align=left;verticalAlign=top;spacingLeft=4;spacingRight=4;overflow=hidden;rotatable=0;points=[[0,0.5],[1,0.5]];portConstraint=eastwest;" vertex="1" parent="m58RcJqBQY2xI49NW2av-21">
          <mxGeometry y="260" width="210" height="26" as="geometry" />
        </mxCell>
        <mxCell id="m58RcJqBQY2xI49NW2av-36" value="+ status: String" style="text;strokeColor=none;fillColor=none;align=left;verticalAlign=top;spacingLeft=4;spacingRight=4;overflow=hidden;rotatable=0;points=[[0,0.5],[1,0.5]];portConstraint=eastwest;" vertex="1" parent="m58RcJqBQY2xI49NW2av-21">
          <mxGeometry y="286" width="210" height="26" as="geometry" />
        </mxCell>
        <mxCell id="m58RcJqBQY2xI49NW2av-24" value="" style="line;strokeWidth=1;fillColor=none;align=left;verticalAlign=middle;spacingTop=-1;spacingLeft=3;spacingRight=3;rotatable=0;labelPosition=right;points=[];portConstraint=eastwest;" vertex="1" parent="m58RcJqBQY2xI49NW2av-21">
          <mxGeometry y="312" width="210" height="8" as="geometry" />
        </mxCell>
        <mxCell id="m58RcJqBQY2xI49NW2av-25" value="+ insertMsgStatus(MsgStatusPO)&#xa;to mysql&#xa;" style="text;strokeColor=none;fillColor=none;align=left;verticalAlign=top;spacingLeft=4;spacingRight=4;overflow=hidden;rotatable=0;points=[[0,0.5],[1,0.5]];portConstraint=eastwest;" vertex="1" parent="m58RcJqBQY2xI49NW2av-21">
          <mxGeometry y="320" width="210" height="44" as="geometry" />
        </mxCell>
        <mxCell id="m58RcJqBQY2xI49NW2av-27" value="" style="shape=link;html=1;rounded=0;fontSize=12;fontColor=#FF0000;" edge="1" parent="1">
          <mxGeometry width="100" relative="1" as="geometry">
            <mxPoint x="560" y="482" as="sourcePoint" />
            <mxPoint x="560" y="562" as="targetPoint" />
          </mxGeometry>
        </mxCell>
        <mxCell id="m58RcJqBQY2xI49NW2av-41" style="edgeStyle=orthogonalEdgeStyle;rounded=0;orthogonalLoop=1;jettySize=auto;html=1;entryX=0;entryY=0.5;entryDx=0;entryDy=0;fontSize=12;fontColor=#FF0000;" edge="1" parent="1" source="m58RcJqBQY2xI49NW2av-2" target="m58RcJqBQY2xI49NW2av-31">
          <mxGeometry relative="1" as="geometry" />
        </mxCell>
      </root>
    </mxGraphModel>
  </diagram>
</mxfile>
